# xmcd
#
# Track frame offsets:
#	150
#	18532
#	39910
#	56447
#	75265
#	80330
#	101345
#	115880
#	132940
#	157022
#
# Disc length: 2374 seconds
#
# Revision: 2
# Processed by: cddbd v1.5.2PL0 Copyright (c) Steve Scherf et al.
# Submitted via: audiograbber 1.83.01
#
DISCID=6c09440a
DTITLE=Philip Bailey - Family Affair
DYEAR=1989
DGENRE=
TTITLE0=This Is How The Work Gets Done
TTITLE1=Family Affair
TTITLE2=No Compromise
TTITLE3=Lonely Broken Hearted People
TTITLE4=Oasis
TTITLE5=Where Can I Go
TTITLE6=Let's Talk About Jesus
TTITLE7=Love That Lasts
TTITLE8=Call To War
TTITLE9=Lord You Reign
EXTD=
EXTT0=
EXTT1=
EXTT2=
EXTT3=
EXTT4=
EXTT5=
EXTT6=
EXTT7=
EXTT8=
EXTT9=
PLAYORDER=
